<?xml version="1.0" standalone="no"?>
<!DOCTYPE svg PUBLIC "-//W3C//DTD SVG 20010904//EN"
 "http://www.w3.org/TR/2001/REC-SVG-20010904/DTD/svg10.dtd">
<svg version="1.0" xmlns="http://www.w3.org/2000/svg"
 width="260.000000pt" height="260.000000pt" viewBox="0 0 260.000000 260.000000"
 preserveAspectRatio="xMidYMid meet">
<metadata>
Created by potrace 1.11, written by Peter Selinger 2001-2013
</metadata>
<g transform="translate(0.000000,260.000000) scale(0.100000,-0.100000)"
fill="#000000" stroke="none">
<path d="M2177 2064 c-10 -3 -41 -52 -73 -117 -31 -62 -81 -149 -110 -195 -30
-46 -68 -113 -85 -150 -35 -78 -70 -132 -85 -132 -22 0 -55 50 -169 255 -116
207 -189 324 -203 326 -4 0 -33 2 -65 4 -70 4 -76 -4 -88 -115 -22 -209 -33
-292 -65 -482 -19 -113 -34 -239 -34 -280 0 -85 -14 -210 -36 -321 -8 -42 -13
-85 -9 -96 5 -17 50 -41 103 -56 33 -9 80 4 86 23 12 40 66 437 66 485 0 47
22 221 51 410 6 38 14 65 18 60 4 -4 16 -30 26 -58 24 -67 131 -277 200 -394
30 -51 55 -97 55 -102 0 -24 26 -59 51 -69 52 -22 73 -8 114 77 84 175 223
500 227 528 2 18 9 30 18 30 19 0 27 -40 29 -146 0 -47 5 -89 10 -95 12 -11
49 -226 57 -325 3 -41 6 -141 7 -224 2 -149 2 -149 27 -162 37 -19 145 -17
164 3 19 18 20 72 6 159 -6 33 -17 146 -26 250 -8 105 -31 282 -50 395 -52
304 -64 380 -64 431 0 59 -23 81 -87 85 -27 1 -56 0 -66 -2z m-776 -74 c10 0
19 -6 19 -14 0 -8 7 -16 15 -20 25 -9 18 -29 -7 -21 -13 4 -35 7 -50 7 -25 -1
-28 2 -28 29 0 24 4 30 16 25 9 -3 24 -6 35 -6z m878 -122 c7 -68 15 -135 18
-150 5 -27 4 -28 -35 -28 -32 0 -43 5 -58 28 -10 15 -17 31 -16 36 4 12 -82
-2 -86 -14 -2 -6 -16 -10 -30 -10 -26 0 -26 0 -7 20 12 11 54 27 99 37 94 22
113 43 37 43 -28 0 -51 4 -51 8 0 4 20 18 46 30 44 22 51 42 14 42 -28 0 -50
11 -50 25 0 17 59 55 86 55 20 0 22 -8 33 -122z m-798 22 c27 -15 24 -27 -13
-50 -34 -21 -64 -11 -53 18 4 10 1 12 -12 7 -37 -15 -53 -17 -53 -6 0 14 56
40 88 41 13 0 32 -5 43 -10z m694 1 c3 -5 -4 -13 -16 -16 -23 -8 -34 -1 -24
14 8 13 32 14 40 2z m-42 -88 c-7 -2 -19 -2 -25 0 -7 3 -2 5 12 5 14 0 19 -2
13 -5z m-577 -42 c-4 -6 -24 -11 -44 -11 l-37 1 30 24 c25 21 32 22 44 11 7
-8 10 -19 7 -25z m-106 9 c0 -14 -24 -22 -52 -18 l-23 5 25 11 c32 14 50 15
50 2z m-52 -47 c25 -6 27 -12 10 -48 -13 -29 -25 -31 -56 -9 -15 10 -22 25
-22 46 0 27 3 30 23 23 12 -3 32 -9 45 -12z m137 -2 c3 -5 1 -13 -5 -16 -15
-9 -43 3 -35 15 8 13 32 13 40 1z m590 -21 c-3 -5 -18 -10 -33 -10 -21 0 -24
2 -12 10 20 13 53 13 45 0z m-59 -24 c18 -14 17 -15 -16 -30 -31 -13 -35 -13
-38 0 -4 15 15 44 27 44 4 0 16 -6 27 -14z m-440 -34 c-7 -11 -56 -22 -56 -13
0 4 7 17 16 30 15 20 18 21 31 8 9 -8 13 -19 9 -25z m669 3 c0 -18 -52 -18
-59 0 -5 13 0 16 27 13 17 -2 32 -7 32 -13z m-925 -25 c26 -26 27 -70 2 -70
-10 0 -27 6 -38 14 -16 13 -17 18 -6 35 7 13 8 21 2 21 -5 0 -10 5 -10 10 0
17 29 11 50 -10z m694 -12 c-7 -24 -53 -86 -79 -108 -14 -11 -14 -14 0 -24 25
-18 8 -49 -25 -44 -24 4 -27 1 -26 -24 1 -15 7 -28 14 -28 8 0 10 -9 6 -27
-17 -72 -62 -115 -136 -128 -58 -11 -51 7 27 70 19 15 17 16 -37 11 -44 -3
-58 -1 -58 9 0 16 22 25 61 25 39 0 77 19 59 30 -16 10 32 101 70 133 16 15
24 30 22 45 -4 28 13 51 53 68 45 20 58 18 49 -8z m246 -9 c0 -14 -5 -19 -17
-17 -23 4 -28 25 -6 31 10 3 19 5 21 6 1 0 2 -8 2 -20z m-640 -24 c0 -8 -9
-15 -20 -15 -20 0 -26 11 -13 23 12 13 33 7 33 -8z m620 -25 c0 -5 -4 -10 -10
-10 -5 0 -10 5 -10 10 0 6 5 10 10 10 6 0 10 -4 10 -10z m-902 -52 c-5 -15
-55 -29 -75 -21 -13 5 -13 7 1 15 20 11 21 28 1 28 -15 0 -20 12 -9 23 10 10
86 -33 82 -45z m277 32 c-3 -5 -15 -10 -26 -10 -10 0 -19 5 -19 10 0 6 12 10
26 10 14 0 23 -4 19 -10z m665 -26 c0 -31 -3 -35 -22 -32 -29 4 -36 37 -12 55
28 20 34 16 34 -23z m-619 -8 c-13 -15 -60 -30 -69 -22 -11 12 22 36 50 36 25
0 28 -3 19 -14z m-381 -56 c0 -5 -7 -10 -15 -10 -8 0 -18 0 -22 -1 -4 0 -9 4
-11 10 -2 6 8 11 22 11 14 0 26 -4 26 -10z m390 -6 c-15 -18 -71 -15 -78 4 -2
8 10 12 43 12 42 0 46 -2 35 -16z m615 5 c8 -13 6 -15 -22 -23 -19 -6 -23 -3
-23 13 0 23 33 30 45 10z m-576 -22 c15 -18 4 -27 -32 -27 -29 0 -30 0 -12 20
21 24 29 25 44 7z m-389 -17 c0 -16 -7 -20 -33 -20 -44 0 -53 11 -25 27 35 19
58 16 58 -7z m998 -22 c-3 -25 -34 -34 -58 -18 -13 9 -12 12 4 25 31 23 58 19
54 -7z m-1042 -33 c-21 -16 -56 -20 -56 -7 0 16 13 22 44 22 29 -1 30 -1 12
-15z m434 6 c0 -5 -7 -12 -16 -15 -22 -9 -24 -8 -24 9 0 8 9 15 20 15 11 0 20
-4 20 -9z m600 -31 c0 -11 -39 -24 -47 -16 -3 3 -3 12 0 20 6 15 47 11 47 -4z
m-1000 -9 c0 -11 -59 -26 -67 -18 -3 3 -2 10 2 16 8 13 65 15 65 2z m420 -36
c-7 -9 -15 -13 -17 -11 -7 7 7 26 19 26 6 0 6 -6 -2 -15z m590 -21 c0 -31 -3
-35 -22 -32 -29 4 -36 37 -12 55 28 20 34 16 34 -23z m-1036 10 c19 -19 21
-79 3 -114 -13 -26 -53 -43 -44 -18 2 7 -4 22 -14 34 -10 11 -22 41 -25 67
l-7 47 36 0 c20 0 43 -7 51 -16z m496 -58 c0 -3 -4 -8 -10 -11 -5 -3 -10 -1
-10 4 0 6 5 11 10 11 6 0 10 -2 10 -4z m30 -36 c-6 -11 -15 -20 -20 -20 -16 0
-11 18 8 29 24 14 24 14 12 -9z m520 -26 c0 -31 -3 -35 -22 -32 -29 4 -36 37
-12 55 28 20 34 16 34 -23z m-1052 -69 c11 -11 -14 -92 -34 -112 -35 -35 -44
-29 -44 33 0 73 13 98 48 89 15 -4 29 -8 30 -10z m1040 3 c-6 -18 -28 -21 -28
-4 0 9 7 16 16 16 9 0 14 -5 12 -12z m22 -48 c0 -15 -7 -20 -25 -20 -27 0 -32
9 -13 28 18 18 38 14 38 -8z m-23 -56 c-3 -3 -12 -4 -19 -1 -8 3 -5 6 6 6 11
1 17 -2 13 -5z m47 -93 c8 -60 0 -81 -29 -81 -20 0 -24 7 -33 63 -10 58 -9 63
11 80 19 17 22 17 33 3 6 -9 14 -38 18 -65z m-1123 -1 c11 0 12 -80 0 -99 -11
-18 -56 -7 -65 15 -9 23 12 97 32 112 15 11 17 10 20 -7 2 -12 8 -21 13 -21z"/>
<path d="M390 2006 c-11 -26 -31 -90 -46 -142 -14 -53 -34 -104 -44 -114 -17
-17 -40 -78 -40 -108 0 -7 -4 -20 -9 -30 -48 -97 -124 -312 -177 -502 -20 -74
-45 -154 -56 -178 -13 -31 -18 -69 -18 -132 0 -97 2 -100 77 -100 38 0 57 24
68 84 3 22 22 76 40 120 18 45 39 103 46 130 l12 49 141 -6 c78 -3 170 -2 206
2 109 15 139 -17 223 -240 l44 -114 41 3 c23 1 58 -4 78 -13 47 -19 88 -19
108 1 9 8 16 17 16 19 0 3 -29 69 -64 148 -70 155 -91 221 -102 309 -5 43 -14
68 -39 100 -34 45 -49 84 -60 158 -4 25 -18 64 -32 88 -13 24 -22 50 -19 58 3
8 0 14 -8 14 -13 0 -42 78 -32 88 3 3 1 10 -4 17 -5 6 -18 38 -29 71 -29 90
-87 215 -111 238 -17 17 -35 22 -105 25 l-85 3 -20 -46z m130 -23 c52 -19 86
-46 106 -85 27 -52 20 -64 -53 -88 -56 -19 -76 -32 -112 -72 -36 -40 -104 -88
-126 -88 -12 0 -4 41 10 46 9 4 13 13 10 24 -9 30 12 68 55 96 43 29 51 44 21
44 -17 0 -18 4 -6 58 19 91 20 93 95 65z m85 -223 c-44 -45 -59 -49 -75 -20
-19 35 13 58 80 59 l34 1 -39 -40z m88 -34 c16 -38 18 -52 9 -67 -9 -15 -9
-17 2 -13 34 13 48 -87 20 -141 -24 -47 -56 -78 -66 -63 -17 28 -8 58 25 79
l32 21 -44 -6 -44 -7 6 31 c6 26 4 29 -16 27 -19 -2 -22 3 -22 33 0 22 -7 40
-18 49 -18 13 -16 16 29 62 27 27 52 48 57 46 5 -1 18 -24 30 -51z m-253 -61
c0 -28 -33 -67 -93 -112 -66 -48 -77 -52 -77 -24 0 25 21 41 64 48 20 3 41 12
47 19 9 10 4 12 -25 7 -20 -3 -36 -3 -36 1 0 9 93 75 108 76 6 0 12 -7 12 -15z
m150 -192 c0 -6 14 -45 30 -86 43 -109 42 -113 -31 -121 -103 -10 -214 -7
-233 7 -17 12 -16 17 17 73 42 71 89 187 107 262 l12 54 49 -89 c26 -48 48
-93 49 -100z m-200 82 c0 -20 -32 -75 -48 -84 -24 -13 -72 -15 -71 -3 1 8 100
90 112 91 4 1 7 -1 7 -4z m397 -108 c8 -50 -3 -84 -32 -103 -20 -13 -28 -14
-40 -4 -21 18 -19 27 13 44 l27 15 -32 1 c-18 0 -33 3 -33 7 0 3 14 28 31 55
27 42 34 47 46 35 7 -7 16 -30 20 -50z m-467 -31 c-8 -7 -37 -26 -64 -42 l-49
-28 7 30 c12 44 25 54 74 54 40 0 44 -2 32 -14z m10 -36 c0 -14 -49 -44 -58
-35 -4 3 4 15 17 26 26 21 41 24 41 9z m505 -82 c34 -115 8 -203 -58 -196 -37
4 -46 23 -15 32 13 3 34 15 48 27 29 24 19 23 -59 -6 -24 -9 -48 -12 -52 -8
-4 4 17 37 46 73 30 36 55 68 55 73 0 4 -14 7 -30 7 -27 0 -29 2 -18 19 13 21
48 41 60 34 4 -2 14 -27 23 -55z m-565 2 c-11 -20 -77 -70 -93 -70 -5 0 -7 15
-5 32 3 36 33 58 81 58 25 0 26 -2 17 -20z m-30 -80 c0 -14 -7 -20 -22 -20
-20 0 -21 1 -3 20 10 11 20 20 22 20 1 0 3 -9 3 -20z m404 -30 c26 -25 -50
-60 -131 -60 l-57 0 21 22 c12 12 30 22 40 23 11 0 30 9 43 18 25 17 64 16 84
-3z m-267 -6 c9 -24 -17 -42 -64 -46 -56 -4 -57 12 -3 40 52 26 59 27 67 6z
m85 -9 c1 -14 -49 -41 -59 -31 -4 4 3 16 16 27 24 20 42 21 43 4z m-247 -15
c3 -5 -12 -18 -35 -30 -41 -21 -49 -15 -30 21 11 20 54 26 65 9z m465 1 c0
-12 -20 -25 -27 -18 -7 7 6 27 18 27 5 0 9 -4 9 -9z m208 -66 c4 -38 -35 -99
-66 -103 -17 -3 -22 2 -22 18 0 15 11 25 35 36 44 18 45 28 2 20 -48 -9 -53 4
-15 36 41 35 62 32 66 -7z m-678 5 c0 -11 -59 -44 -66 -37 -6 6 45 47 57 47 5
0 9 -4 9 -10z m-42 -72 c-6 -17 -56 -53 -64 -45 -8 7 41 57 56 57 7 0 10 -5 8
-12z m757 -19 c9 -27 -10 -47 -54 -55 l-33 -7 27 42 c31 45 50 52 60 20z m25
-67 c0 -5 -14 -21 -30 -37 -25 -24 -34 -27 -48 -19 -24 16 -21 36 8 51 28 14
70 17 70 5z m34 -71 c10 -21 16 -47 14 -57 -4 -23 -47 -30 -78 -14 l-22 12 22
23 c22 24 22 24 1 18 -11 -3 -21 -1 -21 5 0 10 49 51 61 52 3 0 14 -17 23 -39z
m-873 11 c-5 -9 -19 -26 -30 -36 -13 -12 -19 -26 -15 -38 5 -18 -20 -37 -33
-25 -11 11 7 74 28 95 25 28 64 31 50 4z"/>
</g>
</svg>
